# Blender v2.82 (sub 7) OBJ File: 'patch.blend'
# www.blender.org
v -0.129799 -0.127675 0.260077
v -0.129799 -0.127675 0.266077
v -0.129799 0.122325 0.260077
v -0.129799 0.122325 0.266077
v 0.130201 -0.127675 0.260077
v 0.130201 -0.127675 0.266077
v 0.130201 0.122325 0.260077
v 0.130201 0.122325 0.266077
vt 0.985419 -1.944934
vt 0.007708 -0.967222
vt 0.007708 -1.944934
vt 0.985419 -0.967222
vt 0.007708 0.010490
vt 0.985419 0.010490
vt 0.007708 0.988201
vt 0.985419 0.988201
vt 0.007708 1.965913
vt -0.970004 0.988201
vt -0.970004 0.010490
vt 1.963131 0.010490
vt 0.985419 1.965913
vt 1.963131 0.988201
vn -1.0000 0.0000 0.0000
vn 0.0000 1.0000 0.0000
vn 1.0000 0.0000 0.0000
vn 0.0000 -1.0000 0.0000
vn 0.0000 0.0000 -1.0000
vn 0.0000 0.0000 1.0000
s off
f 2/1/1 3/2/1 1/3/1
f 4/4/2 7/5/2 3/2/2
f 8/6/3 5/7/3 7/5/3
f 6/8/4 1/9/4 5/7/4
f 7/5/5 1/10/5 3/11/5
f 4/12/6 6/8/6 8/6/6
f 2/1/1 4/4/1 3/2/1
f 4/4/2 8/6/2 7/5/2
f 8/6/3 6/8/3 5/7/3
f 6/8/4 2/13/4 1/9/4
f 7/5/5 5/7/5 1/10/5
f 4/12/6 2/14/6 6/8/6
